<svg width="130" height="50" viewBox="0 0 130 50" fill="none" xmlns="http://www.w3.org/2000/svg">
<path d="M23.5418 4.70839L11.0418 9.39589C9.41683 10.0209 8.3335 11.5626 8.3335 13.3126V23.1042C8.3335 33.1667 14.8543 42.6251 23.8127 45.5001C24.5835 45.7501 25.4168 45.7501 26.1877 45.5001C35.146 42.6251 41.6668 33.1876 41.6668 23.1042V13.3126C41.6653 12.4648 41.4053 11.6376 40.9214 10.9415C40.4374 10.2454 39.7527 9.71345 38.9585 9.41672L26.4585 4.72922C25.521 4.35422 24.4793 4.35422 23.5418 4.70839Z" fill="#2C698D"/>
<path d="M18.8711 29.1113C18.9688 29.2773 19.0469 29.4482 19.1055 29.624C19.1738 29.7998 19.2471 30.0293 19.3252 30.3125C19.3643 30.4102 19.3984 30.5225 19.4277 30.6494C19.7695 31.7725 20.4189 32.6367 21.376 33.2422C22.333 33.8477 23.4268 34.1504 24.6572 34.1504C25.3018 34.1504 25.9268 34.0381 26.5322 33.8135C27.1475 33.5791 27.6504 33.2324 28.041 32.7734C28.4414 32.3047 28.6416 31.7383 28.6416 31.0742C28.6416 30.498 28.4365 29.9609 28.0264 29.4629C27.626 28.9648 27.123 28.5205 26.5176 28.1299C25.9219 27.7295 25.0967 27.2363 24.042 26.6504C22.8018 25.9668 21.7959 25.3613 21.0244 24.834C20.2529 24.3066 19.5986 23.6816 19.0615 22.959C18.5244 22.2266 18.2559 21.4014 18.2559 20.4834C18.2559 19.3506 18.5732 18.418 19.208 17.6855C19.8525 16.9434 20.6729 16.4062 21.6689 16.0742C22.6748 15.7324 23.7344 15.5615 24.8477 15.5615C25.8047 15.5615 26.7568 15.6787 27.7041 15.9131C28.6611 16.1475 29.5693 16.4844 30.4287 16.9238L30.6191 21.0986H29.7109C29.5938 20.874 29.457 20.5176 29.3008 20.0293L29.1543 19.6045C28.8223 18.6475 28.2461 17.9248 27.4258 17.4365C26.6152 16.9385 25.6777 16.6895 24.6133 16.6895C24.0664 16.6895 23.5146 16.7822 22.958 16.9678C22.4014 17.1533 21.9326 17.4414 21.5518 17.832C21.1807 18.2129 20.9951 18.6865 20.9951 19.2529C20.9951 19.7803 21.1904 20.2734 21.5811 20.7324C21.9717 21.1914 22.4551 21.6113 23.0312 21.9922C23.6074 22.3633 24.4033 22.832 25.4189 23.3984C26.7178 24.1211 27.7676 24.7607 28.5684 25.3174C29.3789 25.8643 30.0674 26.5283 30.6338 27.3096C31.21 28.0908 31.498 28.9746 31.498 29.9609C31.498 31.1816 31.1611 32.2021 30.4873 33.0225C29.8135 33.833 28.9395 34.4287 27.8652 34.8096C26.8008 35.1904 25.668 35.3809 24.4668 35.3809C23.3926 35.3809 22.2354 35.249 20.9951 34.9854C19.7646 34.7119 18.7686 34.3408 18.0068 33.8721V29.1406L18.8711 29.1113Z" fill="white"/>
<path d="M62.634 33.22C61.842 33.22 61.083 33.1247 60.357 32.934C59.631 32.736 58.9673 32.4463 58.366 32.065C57.772 31.6763 57.2807 31.196 56.892 30.624C56.5033 30.0447 56.265 29.37 56.177 28.6H58.949C59.0663 29.1353 59.2973 29.5863 59.642 29.953C59.994 30.3197 60.4377 30.5983 60.973 30.789C61.5083 30.9797 62.106 31.075 62.766 31.075C63.3527 31.075 63.899 30.987 64.405 30.811C64.911 30.635 65.3217 30.3747 65.637 30.03C65.9523 29.678 66.11 29.2453 66.11 28.732C66.11 28.1527 65.9047 27.7017 65.494 27.379C65.0907 27.049 64.5113 26.7887 63.756 26.598L60.643 25.861C59.8363 25.6777 59.1323 25.41 58.531 25.058C57.937 24.706 57.475 24.244 57.145 23.672C56.815 23.0927 56.65 22.385 56.65 21.549C56.65 20.5957 56.9103 19.7707 57.431 19.074C57.959 18.3773 58.674 17.842 59.576 17.468C60.478 17.0867 61.4937 16.896 62.623 16.896C63.9137 16.896 65.0027 17.1123 65.89 17.545C66.7773 17.9703 67.452 18.5423 67.914 19.261C68.376 19.9797 68.6107 20.768 68.618 21.626H65.912C65.8533 20.988 65.6663 20.4857 65.351 20.119C65.0357 19.745 64.636 19.4737 64.152 19.305C63.668 19.1363 63.1327 19.052 62.546 19.052C61.5047 19.052 60.731 19.2757 60.225 19.723C59.719 20.1703 59.466 20.6947 59.466 21.296C59.466 21.8607 59.653 22.308 60.027 22.638C60.401 22.968 60.973 23.2247 61.743 23.408L64.702 24.101C65.692 24.3063 66.4877 24.6217 67.089 25.047C67.6903 25.4723 68.1267 25.9783 68.398 26.565C68.6767 27.1443 68.816 27.786 68.816 28.49C68.816 29.414 68.552 30.2317 68.024 30.943C67.5033 31.6543 66.781 32.2117 65.857 32.615C64.933 33.0183 63.8587 33.22 62.634 33.22ZM76.4766 33.22C75.384 33.22 74.4196 32.989 73.5836 32.527C72.755 32.0577 72.106 31.3903 71.6366 30.525C71.1746 29.6597 70.9436 28.6293 70.9436 27.434C70.9436 26.268 71.1526 25.234 71.5706 24.332C71.996 23.4227 72.6083 22.7077 73.4076 22.187C74.2143 21.6663 75.186 21.406 76.3226 21.406C77.4446 21.406 78.387 21.6443 79.1496 22.121C79.9123 22.5977 80.4916 23.265 80.8876 24.123C81.2836 24.9737 81.4816 25.971 81.4816 27.115V27.929H73.6166C73.6093 28.5743 73.712 29.1463 73.9246 29.645C74.1373 30.1437 74.4526 30.536 74.8706 30.822C75.2886 31.1007 75.8056 31.24 76.4216 31.24C77.0523 31.24 77.5986 31.1007 78.0606 30.822C78.53 30.536 78.8416 30.1033 78.9956 29.524H81.4376C81.3056 30.316 80.9903 30.987 80.4916 31.537C80.0003 32.087 79.399 32.505 78.6876 32.791C77.9836 33.077 77.2466 33.22 76.4766 33.22ZM73.6056 26.268H78.9516C78.9516 25.718 78.8526 25.223 78.6546 24.783C78.464 24.3357 78.1743 23.9837 77.7856 23.727C77.397 23.463 76.9056 23.331 76.3116 23.331C75.725 23.331 75.23 23.474 74.8266 23.76C74.4233 24.046 74.119 24.4163 73.9136 24.871C73.7083 25.3183 73.6056 25.784 73.6056 26.268ZM88.9921 36.762C87.0781 36.762 85.6077 36.5053 84.5811 35.992C83.5544 35.4787 83.0411 34.7747 83.0411 33.88C83.0411 33.4767 83.1401 33.1393 83.3381 32.868C83.5361 32.5967 83.7707 32.373 84.0421 32.197C84.3134 32.021 84.5627 31.8853 84.7901 31.79C85.0174 31.6947 85.1641 31.625 85.2301 31.581C85.1054 31.5077 84.9404 31.4123 84.7351 31.295C84.5297 31.1777 84.3427 31.0163 84.1741 30.811C84.0127 30.6057 83.9321 30.338 83.9321 30.008C83.9321 29.6267 84.1117 29.2747 84.4711 28.952C84.8377 28.6293 85.3841 28.3983 86.1101 28.259C85.3987 27.9143 84.8524 27.4487 84.4711 26.862C84.0897 26.2753 83.8991 25.6667 83.8991 25.036C83.8991 24.288 84.1154 23.6463 84.5481 23.111C84.9881 22.5757 85.5967 22.165 86.3741 21.879C87.1514 21.593 88.0571 21.45 89.0911 21.45C89.8464 21.45 90.4734 21.5343 90.9721 21.703C91.4781 21.8717 91.9474 22.099 92.3801 22.385C92.5267 22.3263 92.7321 22.2457 92.9961 22.143C93.2601 22.033 93.5497 21.9157 93.8651 21.791C94.1804 21.659 94.4847 21.5343 94.7781 21.417C95.0714 21.2923 95.3171 21.1897 95.5151 21.109L95.5041 23.32L93.5351 23.672C93.6304 23.8847 93.7037 24.1157 93.7551 24.365C93.8137 24.6143 93.8431 24.8343 93.8431 25.025C93.8431 25.685 93.6561 26.2973 93.2821 26.862C92.9154 27.4193 92.3617 27.8667 91.6211 28.204C90.8877 28.5413 89.9711 28.71 88.8711 28.71C88.7611 28.71 88.6107 28.7063 88.4201 28.699C88.2294 28.6917 88.0754 28.6843 87.9581 28.677C87.3641 28.699 86.9571 28.7687 86.7371 28.886C86.5171 29.0033 86.4071 29.1317 86.4071 29.271C86.4071 29.469 86.5721 29.601 86.9021 29.667C87.2321 29.733 87.7601 29.7917 88.4861 29.843C88.7427 29.8577 89.0801 29.876 89.4981 29.898C89.9161 29.92 90.3817 29.9493 90.8951 29.986C92.1931 30.0667 93.1757 30.393 93.8431 30.965C94.5104 31.5297 94.8441 32.263 94.8441 33.165C94.8441 34.2137 94.3601 35.0753 93.3921 35.75C92.4241 36.4247 90.9574 36.762 88.9921 36.762ZM89.4431 35.189C90.4037 35.189 91.1151 35.057 91.5771 34.793C92.0391 34.529 92.2701 34.1403 92.2701 33.627C92.2701 33.231 92.1124 32.9083 91.7971 32.659C91.4817 32.4097 91.0124 32.263 90.3891 32.219L87.5181 32.043C87.2027 32.021 86.9021 32.0797 86.6161 32.219C86.3374 32.351 86.1101 32.538 85.9341 32.78C85.7581 33.0147 85.6701 33.275 85.6701 33.561C85.6701 34.0963 85.9744 34.4997 86.5831 34.771C87.1991 35.0497 88.1524 35.189 89.4431 35.189ZM88.9591 27.137C89.6557 27.137 90.2204 26.961 90.6531 26.609C91.0857 26.2497 91.3021 25.7437 91.3021 25.091C91.3021 24.4163 91.0857 23.892 90.6531 23.518C90.2204 23.1367 89.6557 22.946 88.9591 22.946C88.2477 22.946 87.6721 23.1367 87.2321 23.518C86.7994 23.8993 86.5831 24.4237 86.5831 25.091C86.5831 25.7217 86.7921 26.2203 87.2101 26.587C87.6281 26.9537 88.2111 27.137 88.9591 27.137ZM101.626 33.22C101.068 33.22 100.529 33.1393 100.009 32.978C99.4954 32.8093 99.0334 32.5673 98.6227 32.252C98.2121 31.9293 97.8857 31.5333 97.6437 31.064C97.4017 30.5947 97.2807 30.0483 97.2807 29.425V21.626H99.9647V29.117C99.9647 29.733 100.159 30.239 100.548 30.635C100.944 31.031 101.538 31.229 102.33 31.229C103.048 31.229 103.624 31.042 104.057 30.668C104.489 30.2867 104.706 29.7403 104.706 29.029V21.626H107.368V33H105.311L105.014 30.778C104.874 31.4013 104.629 31.8927 104.277 32.252C103.932 32.604 103.525 32.8533 103.056 33C102.594 33.1467 102.117 33.22 101.626 33.22ZM110.508 33V21.626H113.071V24.09C113.255 23.5253 113.515 23.045 113.852 22.649C114.197 22.2457 114.6 21.9377 115.062 21.725C115.524 21.5123 116.027 21.406 116.569 21.406C116.701 21.406 116.83 21.4133 116.954 21.428C117.079 21.4427 117.171 21.4683 117.229 21.505V24.068C117.149 24.0313 117.042 24.0057 116.91 23.991C116.786 23.9763 116.676 23.969 116.58 23.969C116.03 23.925 115.543 23.947 115.117 24.035C114.699 24.123 114.344 24.2733 114.05 24.486C113.764 24.6913 113.548 24.9553 113.401 25.278C113.255 25.5933 113.181 25.9637 113.181 26.389V33H110.508ZM122.327 33.22C121.601 33.22 120.948 33.088 120.369 32.824C119.797 32.5527 119.346 32.1677 119.016 31.669C118.693 31.163 118.532 30.5507 118.532 29.832C118.532 28.578 118.983 27.632 119.885 26.994C120.794 26.356 122.239 26.0223 124.219 25.993L125.924 25.949V25.179C125.924 24.5777 125.744 24.1083 125.385 23.771C125.033 23.4263 124.483 23.2577 123.735 23.265C123.177 23.2723 122.671 23.4043 122.217 23.661C121.762 23.9103 121.461 24.332 121.315 24.926H119.038C119.082 24.1487 119.305 23.4997 119.709 22.979C120.119 22.451 120.68 22.0587 121.392 21.802C122.103 21.538 122.924 21.406 123.856 21.406C124.941 21.406 125.825 21.549 126.507 21.835C127.189 22.121 127.691 22.5353 128.014 23.078C128.336 23.6133 128.498 24.2623 128.498 25.025V33H126.243L126.023 30.954C125.619 31.812 125.102 32.406 124.472 32.736C123.848 33.0587 123.133 33.22 122.327 33.22ZM123.196 31.405C123.526 31.405 123.852 31.3463 124.175 31.229C124.497 31.1043 124.787 30.9393 125.044 30.734C125.308 30.5213 125.517 30.2867 125.671 30.03C125.832 29.7733 125.916 29.5057 125.924 29.227V27.434L124.527 27.456C123.837 27.4633 123.232 27.5367 122.712 27.676C122.198 27.8153 121.799 28.039 121.513 28.347C121.227 28.6477 121.084 29.051 121.084 29.557C121.084 30.1363 121.285 30.591 121.689 30.921C122.092 31.2437 122.594 31.405 123.196 31.405Z" fill="#2C698D"/>
</svg>
